# xmcd
#
# Track frame offsets:
#	150
#	16528
#	33367
#	46937
#	65387
#	84782
#	97726
#	109979
#	124679
#	133519
#	146301
#	162180
#	176356
#	196115
#	209661
#	220660
#
# Disc length: 3123 seconds
#
# Revision: 0
# Processed by: cddbd v1.5.2PL0 Copyright (c) Steve Scherf et al.
# Submitted via: dBpowerAMP V4.0
#
DISCID=c50c3110
DTITLE=Danny and The Cappers - Walk Right In
DYEAR=2004
DGENRE=Rockabilly
TTITLE0=She Walks Right In
TTITLE1=I Keep On Lovin' Her
TTITLE2=Looking For My Baby
TTITLE3=It's Love Baby
TTITLE4=If You Don't Care
TTITLE5=She's Got It All
TTITLE6=It's Obdacious
TTITLE7=Real Lovin'
TTITLE8=Let The Four Winds Blow
TTITLE9=Baby I'm Gone
TTITLE10=Reelin' and Rockin'
TTITLE11=Alligator Walk
TTITLE12=I Feel Bad, I Feel Terrible
TTITLE13=You Better Belive It
TTITLE14=Got To Have Her Lovin'
TTITLE15=Somebody Told Me
EXTD=
EXTT0=
EXTT1=
EXTT2=
EXTT3=
EXTT4=
EXTT5=
EXTT6=
EXTT7=
EXTT8=
EXTT9=
EXTT10=
EXTT11=
EXTT12=
EXTT13=
EXTT14=
EXTT15=
PLAYORDER=
